<svg xmlns="http://www.w3.org/2000/svg" viewBox="0 0 4550 50" width="4550" height="50"><g fill="#1a1a1a"><path d="M0 25V0h31.117zM0 50V25l31.117 25zM18.882 25L50 0v50z"/></g><g fill="#1a1a1a"><path d="M50 25.018V-.018h31.161z"/><path d="M50 50.018V24.982l31.162 25.036zM68.856 25L100-.023v50.046z"/></g><g fill="#1a1a1a"><path d="M100 25.076V-.076h31.306z"/><path d="M100 50.076V24.924l31.307 25.152zM118.77 25L150-.1v50.2z"/></g><g fill="#1a1a1a"><path d="M150 25.185V-.185h31.577z"/><path d="M150 50.185v-25.37l31.578 25.37zM168.609 25L200-.243v50.486z"/></g><g fill="#1a1a1a"><path d="M200 25.357V-.357h32.006z"/><path d="M200 50.357V24.643l32.006 25.714zM218.355 25L250-.468v50.936z"/></g><g fill="#1a1a1a"><path d="M250 25.609V-.609h32.632z"/><path d="M250 50.609V24.391l32.633 26.218zM267.984 25L300-.798v51.596z"/></g><g fill="#1a1a1a"><path d="M300 25.958V-.958h33.502z"/><path d="M300 50.958V24.042l33.502 26.916zM317.468 25L350-1.257v52.514z"/></g><g fill="#1a1a1a"><path d="M350 26.419V-1.419h34.651z"/><path d="M350 51.419V23.581l34.651 27.838zM366.787 25L400-1.862v53.724z"/></g><g fill="#1a1a1a"><path d="M400 26.989V-1.989h36.068z"/><path d="M400 51.989V23.011l36.068 28.978zM415.947 25L450-2.608v55.216z"/></g><g fill="#1a1a1a"><path d="M450 27.627V-2.627h37.657z"/><path d="M450 52.627V22.373l37.657 30.254zM465.004 25L500-3.446v56.892z"/></g><g fill="#1a1a1a"><path d="M500 28.27V-3.27h39.258z"/><path d="M500 53.27V21.73l39.259 31.54zM514.055 25L550-4.289v58.578z"/></g><g fill="#1a1a1a"><path d="M550 28.865v-32.73h40.74z"/><path d="M550 53.865v-32.73l40.74 32.73zM563.176 25L600-5.07v60.14z"/></g><g fill="#1a1a1a"><path d="M600 29.388V-4.388h42.042z"/><path d="M600 54.388V20.612l42.042 33.776zM612.404 25L650-5.756v61.512z"/></g><g fill="#1a1a1a"><path d="M650 29.838V-4.838h43.161z"/><path d="M650 54.838V20.162l43.161 34.676zM661.74 25L700-6.345v62.69z"/></g><g fill="#1a1a1a"><path d="M700 30.221V-5.221h44.114z"/><path d="M700 55.221V19.779l44.114 35.442zM711.175 25L750-6.848v63.696z"/></g><g fill="#1a1a1a"><path d="M750 30.547V-5.547h44.926z"/><path d="M750 55.547V19.453l44.926 36.094zM760.694 25L800-7.276v64.552z"/></g><g fill="#1a1a1a"><path d="M800 30.825v-36.65h45.618z"/><path d="M800 55.825v-36.65l45.618 36.65zM810.283 25L850-7.64v65.28z"/></g><g fill="#1a1a1a"><path d="M850 31.062V-6.062h46.209z"/><path d="M850 56.062V18.938l46.209 37.124zM859.933 25L900-7.952v65.904z"/></g><g fill="#1a1a1a"><path d="M900 31.265v-37.53h46.714z"/><path d="M900 56.265v-37.53l46.714 37.53zM909.634 25L950-8.217v66.434z"/></g><g fill="#1a1a1a"><path d="M950 31.438V-6.438h47.144z"/><path d="M950 56.438V18.562l47.145 37.876zM959.378 25L1000-8.444v66.888z"/></g><g fill="#1a1a1a"><path d="M1000 31.585v-38.17h47.511z"/><path d="M1000 56.585v-38.17l47.511 38.17z"/><path d="M1009.16 25L1050-8.638v67.276z"/></g><g fill="#1a1a1a"><path d="M1050 31.71V-6.71h47.822z"/><path d="M1050 56.71V18.29l47.822 38.42z"/><path d="M1058.976 25L1100-8.802v67.604z"/></g><g fill="#1a1a1a"><path d="M1100 31.816V-6.816h48.084z"/><path d="M1100 56.816V18.184l48.084 38.632z"/><path d="M1108.821 25L1150-8.94v67.88z"/></g><g fill="#1a1a1a"><path d="M1150 31.903V-6.903h48.302z"/><path d="M1150 56.903V18.097l48.302 38.806z"/><path d="M1158.691 25L1200-9.055v68.11z"/></g><g fill="#1a1a1a"><path d="M1200 31.975v-38.95h48.482z"/><path d="M1200 56.975v-38.95l48.482 38.95z"/><path d="M1208.585 25L1250-9.149v68.298z"/></g><g fill="#1a1a1a"><path d="M1250 32.033V-7.033h48.626z"/><path d="M1250 57.033V17.967l48.626 39.066z"/><path d="M1258.5 25L1300-9.225v68.45z"/></g><g fill="#1a1a1a"><path d="M1300 32.078V-7.078h48.738z"/><path d="M1300 57.078V17.922l48.738 39.156z"/><path d="M1308.433 25L1350-9.284v68.568z"/></g><g fill="#1a1a1a"><path d="M1350 32.112V-7.112h48.821z"/><path d="M1350 57.112V17.888l48.821 39.224z"/><path d="M1358.384 25L1400-9.328v68.656z"/></g><g fill="#1a1a1a"><path d="M1400 32.135v-39.27h48.879z"/><path d="M1400 57.135v-39.27l48.879 39.27z"/><path d="M1408.35 25L1450-9.358v68.716z"/></g><g fill="#1a1a1a"><path d="M1450 32.148V-7.148h48.911z"/><path d="M1450 57.148V17.852l48.911 39.296z"/><path d="M1458.33 25L1500-9.375v68.75z"/></g><g fill="#1a1a1a"><path d="M1500 32.152V-7.152h48.922z"/><path d="M1500 57.152V17.848l48.922 39.304z"/><path d="M1508.324 25L1550-9.381v68.762z"/></g><g fill="#1a1a1a"><path d="M1550 32.152V-7.152h48.922z"/><path d="M1550 57.152V17.848l48.922 39.304z"/><path d="M1558.324 25L1600-9.381v68.762z"/></g><g fill="#1a1a1a"><path d="M1600 32.152V-7.152h48.922z"/><path d="M1600 57.152V17.848l48.922 39.304z"/><path d="M1608.324 25L1650-9.381v68.762z"/></g><g fill="#1a1a1a"><path d="M1650 32.152V-7.152h48.922z"/><path d="M1650 57.152V17.848l48.922 39.304z"/><path d="M1658.324 25L1700-9.381v68.762z"/></g><g fill="#1a1a1a"><path d="M1700 32.152V-7.152h48.922z"/><path d="M1700 57.152V17.848l48.922 39.304z"/><path d="M1708.324 25L1750-9.381v68.762z"/></g><g fill="#1a1a1a"><path d="M1750 32.152V-7.152h48.922z"/><path d="M1750 57.152V17.848l48.922 39.304z"/><path d="M1758.324 25L1800-9.381v68.762z"/></g><g fill="#1a1a1a"><path d="M1800 32.152V-7.152h48.922z"/><path d="M1800 57.152V17.848l48.922 39.304z"/><path d="M1808.324 25L1850-9.381v68.762z"/></g><g fill="#1a1a1a"><path d="M1850 32.152V-7.152h48.922z"/><path d="M1850 57.152V17.848l48.922 39.304z"/><path d="M1858.324 25L1900-9.381v68.762z"/></g><g fill="#1a1a1a"><path d="M1900 32.152V-7.152h48.922z"/><path d="M1900 57.152V17.848l48.922 39.304z"/><path d="M1908.324 25L1950-9.381v68.762z"/></g><g fill="#1a1a1a"><path d="M1950 32.152V-7.152h48.922z"/><path d="M1950 57.152V17.848l48.922 39.304z"/><path d="M1958.324 25L2000-9.381v68.762z"/></g><g fill="#1a1a1a"><path d="M2000 32.152V-7.152h48.922z"/><path d="M2000 57.152V17.848l48.922 39.304z"/><path d="M2008.324 25L2050-9.381v68.762z"/></g><g fill="#1a1a1a"><path d="M2050 32.152V-7.152h48.922z"/><path d="M2050 57.152V17.848l48.922 39.304z"/><path d="M2058.324 25L2100-9.381v68.762z"/></g><g fill="#1a1a1a"><path d="M2100 32.152V-7.152h48.922z"/><path d="M2100 57.152V17.848l48.922 39.304z"/><path d="M2108.324 25L2150-9.381v68.762z"/></g><g fill="#1a1a1a"><path d="M2150 32.152V-7.152h48.922z"/><path d="M2150 57.152V17.848l48.922 39.304z"/><path d="M2158.324 25L2200-9.381v68.762z"/></g><g fill="#1a1a1a"><path d="M2200 32.152V-7.152h48.922z"/><path d="M2200 57.152V17.848l48.922 39.304z"/><path d="M2208.324 25L2250-9.381v68.762z"/></g><g fill="#1a1a1a"><path d="M2250 32.152V-7.152h48.922z"/><path d="M2250 57.152V17.848l48.922 39.304z"/><path d="M2258.324 25L2300-9.381v68.762z"/></g><g fill="#1a1a1a"><path d="M2300 32.134V-7.134h48.878z"/><path d="M2300 57.134V17.866l48.878 39.268z"/><path d="M2308.35 25L2350-9.358v68.716z"/></g><g fill="#1a1a1a"><path d="M2350 32.076V-7.076h48.733z"/><path d="M2350 57.076V17.924l48.733 39.152z"/><path d="M2358.436 25L2400-9.281v68.562z"/></g><g fill="#1a1a1a"><path d="M2400 31.967V-6.967h48.462z"/><path d="M2400 56.967V18.033l48.462 38.934z"/><path d="M2408.597 25L2450-9.138v68.276z"/></g><g fill="#1a1a1a"><path d="M2450 31.795v-38.59h48.033z"/><path d="M2450 56.795v-38.59l48.033 38.59z"/><path d="M2458.851 25L2500-8.913v67.826z"/></g><g fill="#1a1a1a"><path d="M2500 31.543V-6.543h47.407z"/><path d="M2500 56.543V18.457l47.407 38.086zM2509.223 25L2550-8.583v67.166z"/></g><g fill="#1a1a1a"><path d="M2550 31.194V-6.194h46.537z"/><path d="M2550 56.194V18.806l46.537 37.388zM2559.738 25L2600-8.124v66.248z"/></g><g fill="#1a1a1a"><path d="M2600 30.733V-5.733h45.388z"/><path d="M2600 55.733V19.267l45.388 36.466zM2610.419 25L2650-7.519v65.038z"/></g><g fill="#1a1a1a"><path d="M2650 30.163V-5.163h43.971z"/><path d="M2650 55.163V19.837l43.971 35.326zM2661.26 25L2700-6.773v63.546z"/></g><g fill="#1a1a1a"><path d="M2700 29.525v-34.05h42.382z"/><path d="M2700 54.525v-34.05l42.382 34.05zM2712.202 25L2750-5.935v61.87z"/></g><g fill="#1a1a1a"><path d="M2750 28.882V-3.882h40.781z"/><path d="M2750 53.882V21.118l40.781 32.764zM2763.152 25L2800-5.092v60.184z"/></g><g fill="#1a1a1a"><path d="M2800 28.287V-3.287h39.299z"/><path d="M2800 53.287V21.713l39.299 31.574zM2814.03 25L2850-4.311v58.622z"/></g><g fill="#1a1a1a"><path d="M2850 27.764V-2.764h37.997z"/><path d="M2850 52.764V22.236l37.997 30.528zM2864.803 25L2900-3.625v57.25z"/></g><g fill="#1a1a1a"><path d="M2900 27.314V-2.314h36.878z"/><path d="M2900 52.314V22.686l36.879 29.628zM2915.466 25L2950-3.036v56.072z"/></g><g fill="#1a1a1a"><path d="M2950 26.931V-1.931h35.925z"/><path d="M2950 51.931V23.069l35.925 28.862zM2966.031 25L3000-2.533v55.066z"/></g><g fill="#1a1a1a"><path d="M3000 26.605v-28.21h35.113z"/><path d="M3000 51.605v-28.21l35.114 28.21zM3016.513 25L3050-2.105v54.21z"/></g><g fill="#1a1a1a"><path d="M3050 26.327V-1.327h34.421z"/><path d="M3050 51.327V23.673l34.421 27.654zM3066.923 25L3100-1.741v53.482z"/></g><g fill="#1a1a1a"><path d="M3100 26.09V-1.09h33.83z"/><path d="M3100 51.09V23.91l33.831 27.18zM3117.273 25L3150-1.429v52.858z"/></g><g fill="#1a1a1a"><path d="M3150 25.887V-.887h33.325z"/><path d="M3150 50.887V24.113l33.326 26.774zM3167.573 25L3200-1.164v52.328z"/></g><g fill="#1a1a1a"><path d="M3200 25.714V-.714h32.895z"/><path d="M3200 50.714V24.286l32.895 26.428zM3217.828 25L3250-.937v51.874z"/></g><g fill="#1a1a1a"><path d="M3250 25.567V-.567h32.528z"/><path d="M3250 50.567V24.433l32.528 26.134zM3268.046 25L3300-.743v51.486z"/></g><g fill="#1a1a1a"><path d="M3300 25.442V-.442h32.217z"/><path d="M3300 50.442V24.558l32.217 25.884zM3318.23 25L3350-.579v51.158z"/></g><g fill="#1a1a1a"><path d="M3350 25.336V-.336h31.955z"/><path d="M3350 50.336V24.664l31.955 25.672zM3368.386 25L3400-.441v50.882z"/></g><g fill="#1a1a1a"><path d="M3400 25.249V-.249h31.737z"/><path d="M3400 50.249V24.751l31.737 25.498zM3418.515 25L3450-.326v50.652z"/></g><g fill="#1a1a1a"><path d="M3450 25.177V-.177h31.557z"/><path d="M3450 50.177V24.823l31.558 25.354zM3468.621 25L3500-.232v50.464z"/></g><g fill="#1a1a1a"><path d="M3500 25.119V-.119h31.413z"/><path d="M3500 50.119V24.881l31.414 25.238zM3518.707 25L3550-.156v50.312z"/></g><g fill="#1a1a1a"><path d="M3550 25.074V-.074h31.301z"/><path d="M3550 50.074V24.926l31.301 25.148zM3568.773 25L3600-.097v50.194z"/></g><g fill="#1a1a1a"><path d="M3600 25.04V-.04h31.218z"/><path d="M3600 50.04V24.96l31.218 25.08zM3618.823 25L3650-.053v50.106z"/></g><g fill="#1a1a1a"><path d="M3650 25.017V-.017h31.16z"/><path d="M3650 50.017V24.983l31.161 25.034zM3668.857 25L3700-.023v50.046z"/></g><g fill="#1a1a1a"><path d="M3700 25.004V-.004h31.128z"/><path d="M3700 50.004V24.996l31.128 25.008zM3718.876 25L3750-.006v50.012z"/></g><g fill="#1a1a1a"><path d="M3750 25V0h31.117zM3750 50V25l31.117 25zM3768.882 25L3800 0v50z"/></g><g fill="#1a1a1a"><path d="M3800 25V0h31.117zM3800 50V25l31.117 25zM3818.882 25L3850 0v50z"/></g><g fill="#1a1a1a"><path d="M3850 25V0h31.117zM3850 50V25l31.117 25zM3868.882 25L3900 0v50z"/></g><g fill="#1a1a1a"><path d="M3900 25V0h31.117zM3900 50V25l31.117 25zM3918.882 25L3950 0v50z"/></g><g fill="#1a1a1a"><path d="M3950 25V0h31.117zM3950 50V25l31.117 25zM3968.882 25L4000 0v50z"/></g><g fill="#1a1a1a"><path d="M4000 25V0h31.117zM4000 50V25l31.117 25zM4018.882 25L4050 0v50z"/></g><g fill="#1a1a1a"><path d="M4050 25V0h31.117zM4050 50V25l31.117 25zM4068.882 25L4100 0v50z"/></g><g fill="#1a1a1a"><path d="M4100 25V0h31.117zM4100 50V25l31.117 25zM4118.882 25L4150 0v50z"/></g><g fill="#1a1a1a"><path d="M4150 25V0h31.117zM4150 50V25l31.117 25zM4168.882 25L4200 0v50z"/></g><g fill="#1a1a1a"><path d="M4200 25V0h31.117zM4200 50V25l31.117 25zM4218.882 25L4250 0v50z"/></g><g fill="#1a1a1a"><path d="M4250 25V0h31.117zM4250 50V25l31.117 25zM4268.882 25L4300 0v50z"/></g><g fill="#1a1a1a"><path d="M4300 25V0h31.117zM4300 50V25l31.117 25zM4318.882 25L4350 0v50z"/></g><g fill="#1a1a1a"><path d="M4350 25V0h31.117zM4350 50V25l31.117 25zM4368.882 25L4400 0v50z"/></g><g fill="#1a1a1a"><path d="M4400 25V0h31.117zM4400 50V25l31.117 25zM4418.882 25L4450 0v50z"/></g><g fill="#1a1a1a"><path d="M4450 25V0h31.117zM4450 50V25l31.117 25zM4468.882 25L4500 0v50z"/></g><g fill="#1a1a1a"><path d="M4500 25V0h31.117zM4500 50V25l31.117 25zM4518.882 25L4550 0v50z"/></g></svg>